<svg id="Capa_1" data-name="Capa 1" xmlns="http://www.w3.org/2000/svg" viewBox="0 0 95 95"><defs><style>.cls-1{fill:#fff;}</style></defs><title>Tip_Numero 2</title><path class="cls-1" d="M15.43,36.31a33.94,33.94,0,0,1,64.12,0l0,.11H89.8V35.19l-4.24-.5c-2.62-.3-3.17-1.46-3.89-2.93l-.18-.35a37.62,37.62,0,0,0-68,0l-.18.36c-.71,1.46-1.27,2.62-3.89,2.92l-4.24.5v1.23h10.2Z"/><path class="cls-1" d="M79.59,58.56l0,.11a33.94,33.94,0,0,1-64.12,0l0-.1H5.2v1.23l4.24.5c2.62.3,3.18,1.46,3.89,2.92l.18.36a37.61,37.61,0,0,0,68,0l.18-.35c.71-1.46,1.27-2.62,3.89-2.93l4.24-.5V58.56Z"/><path class="cls-1" d="M29.56,40a8.94,8.94,0,0,1,7.28-3.23A8.92,8.92,0,0,1,44.11,40a12.93,12.93,0,0,1,2.69,8.55A12.87,12.87,0,0,1,44,57.12a9,9,0,0,1-7.2,3.26,9,9,0,0,1-7.23-3.24,13,13,0,0,1-2.74-8.62A12.93,12.93,0,0,1,29.56,40Zm7.17-.22A6,6,0,0,0,32.07,42c-1.32,1.49-2,3.67-2,6.54a9.59,9.59,0,0,0,2,6.48,6.08,6.08,0,0,0,4.74,2.29A6.17,6.17,0,0,0,41.48,55a9.31,9.31,0,0,0,2.09-6.46c0-2.9-.65-5.08-2-6.56A6.28,6.28,0,0,0,36.73,39.75Z"/><path class="cls-1" d="M65.63,36.81v3A18.49,18.49,0,0,0,59.16,42a9.84,9.84,0,0,0-4.33,4.31A6,6,0,0,1,57,45.1a8.75,8.75,0,0,1,8.91,1.62,7.32,7.32,0,0,1,2.23,5.45,7.94,7.94,0,0,1-2.4,5.77,8.62,8.62,0,0,1-6.44,2.44A8.39,8.39,0,0,1,53,58a8.94,8.94,0,0,1-2.39-6.56,12.85,12.85,0,0,1,2-7.14,14.83,14.83,0,0,1,5.36-5A22.27,22.27,0,0,1,65.63,36.81Zm-6.2,10.52a5.68,5.68,0,0,0-3.92,1.37A4.59,4.59,0,0,0,54,52.28a4.9,4.9,0,0,0,1.4,3.61,5.31,5.31,0,0,0,3.93,1.4,5.61,5.61,0,0,0,3.93-1.38,4.74,4.74,0,0,0,1.51-3.67,4.47,4.47,0,0,0-1.55-3.63A5.73,5.73,0,0,0,59.43,47.33Z"/></svg>