<svg id="Capa_1" data-name="Capa 1" xmlns="http://www.w3.org/2000/svg" viewBox="0 0 95 95"><defs><style>.cls-1{fill:#fff;}</style></defs><title>Tip_Numero 2</title><path class="cls-1" d="M15.43,36.31a33.94,33.94,0,0,1,64.12,0l0,.11H89.8V35.19l-4.24-.5c-2.62-.3-3.17-1.46-3.89-2.93l-.18-.35a37.62,37.62,0,0,0-68,0l-.18.36c-.71,1.46-1.27,2.62-3.89,2.92l-4.24.5v1.23h10.2Z"/><path class="cls-1" d="M79.59,58.56l0,.11a33.94,33.94,0,0,1-64.12,0l0-.1H5.2v1.23l4.24.5c2.62.3,3.18,1.46,3.89,2.92l.18.36a37.61,37.61,0,0,0,68,0l.18-.35c.71-1.46,1.27-2.62,3.89-2.93l4.24-.5V58.56Z"/><path class="cls-1" d="M30,40a9,9,0,0,1,7.28-3.23A8.94,8.94,0,0,1,44.57,40a12.93,12.93,0,0,1,2.68,8.55,12.87,12.87,0,0,1-2.75,8.6,9,9,0,0,1-7.21,3.26,9,9,0,0,1-7.22-3.24,12.92,12.92,0,0,1-2.74-8.62A12.93,12.93,0,0,1,30,40Zm7.18-.22A6.06,6.06,0,0,0,32.52,42q-2,2.24-2,6.54a9.52,9.52,0,0,0,2,6.48,6.08,6.08,0,0,0,4.73,2.29A6.17,6.17,0,0,0,41.94,55,9.31,9.31,0,0,0,44,48.52q0-4.34-2-6.56A6.26,6.26,0,0,0,37.19,39.75Z"/><path class="cls-1" d="M59,36.74a9.16,9.16,0,0,1,6.06,1.84,6.19,6.19,0,0,1,2.21,5q0,6-11.08,13.33H67.7v3H51.29V57.12c1.12-.8,2-1.42,2.58-1.88l2.66-2a31.73,31.73,0,0,0,2.83-2.39c.7-.69,1.43-1.46,2.21-2.31a10.72,10.72,0,0,0,1.71-2.44,5,5,0,0,0,.57-2.18,3.91,3.91,0,0,0-1.23-3,5.83,5.83,0,0,0-4-1.14A15.7,15.7,0,0,0,52,41.47V38.21A18.2,18.2,0,0,1,59,36.74Z"/></svg>