<svg id="Capa_1" data-name="Capa 1" xmlns="http://www.w3.org/2000/svg" viewBox="0 0 95 95"><defs><style>.cls-1{fill:#fff;}</style></defs><title>Tip_Numero 2</title><path class="cls-1" d="M15.43,36.31a33.94,33.94,0,0,1,64.12,0l0,.11H89.8V35.19l-4.24-.5c-2.62-.3-3.17-1.46-3.89-2.93l-.18-.35a37.62,37.62,0,0,0-68,0l-.18.36c-.71,1.46-1.27,2.62-3.89,2.92l-4.24.5v1.23h10.2Z"/><path class="cls-1" d="M79.59,58.56l0,.11a33.94,33.94,0,0,1-64.12,0l0-.1H5.2v1.23l4.24.5c2.62.3,3.18,1.46,3.89,2.92l.18.36a37.61,37.61,0,0,0,68,0l.18-.35c.71-1.46,1.27-2.62,3.89-2.93l4.24-.5V58.56Z"/><path class="cls-1" d="M29.26,40a9,9,0,0,1,7.28-3.22A9,9,0,0,1,43.82,40a13,13,0,0,1,2.68,8.56,12.92,12.92,0,0,1-2.75,8.6,9,9,0,0,1-7.21,3.26,9,9,0,0,1-7.23-3.24,13,13,0,0,1-2.73-8.62A13,13,0,0,1,29.26,40Zm7.17-.21A6,6,0,0,0,31.77,42q-2,2.24-2,6.54a9.59,9.59,0,0,0,2,6.48,6.1,6.1,0,0,0,4.74,2.29A6.2,6.2,0,0,0,41.19,55a9.33,9.33,0,0,0,2.08-6.46c0-2.9-.65-5.08-2-6.56A6.28,6.28,0,0,0,36.43,39.75Z"/><path class="cls-1" d="M59.34,36.74a10.26,10.26,0,0,1,5.84,1.59A5.24,5.24,0,0,1,67.55,43a4.26,4.26,0,0,1-1.18,2.94,8.57,8.57,0,0,1-2.72,2,8,8,0,0,1,3.21,2,4.83,4.83,0,0,1,1.49,3.56,5.84,5.84,0,0,1-2.49,5.05,10.94,10.94,0,0,1-6.52,1.79,10.75,10.75,0,0,1-6.49-1.82,6,6,0,0,1-2.49-5.09,4.81,4.81,0,0,1,1.49-3.53,7.7,7.7,0,0,1,3.24-2q-3.89-2-3.89-5a5.24,5.24,0,0,1,2.37-4.6A10,10,0,0,1,59.34,36.74Zm0,12.66a6.63,6.63,0,0,0-4.26,1.23,3.61,3.61,0,0,0-1.52,2.88,3.22,3.22,0,0,0,1.73,3,8.76,8.76,0,0,0,8,0,3.17,3.17,0,0,0,1.76-2.94,3.68,3.68,0,0,0-1.53-2.93A6.52,6.52,0,0,0,59.37,49.4Zm3.56-8.84a6.1,6.1,0,0,0-3.59-1,6,6,0,0,0-3.56,1,3.07,3.07,0,0,0,0,5.12,5.55,5.55,0,0,0,3.51,1.09,5.79,5.79,0,0,0,3.54-1.07,3.06,3.06,0,0,0,1.44-2.47A3.09,3.09,0,0,0,62.93,40.56Z"/></svg>