<svg id="Capa_1" data-name="Capa 1" xmlns="http://www.w3.org/2000/svg" viewBox="0 0 95 95"><defs><style>.cls-1{fill:#fff;}</style></defs><title>Tip_Numero 2</title><path class="cls-1" d="M15.43,36.31a33.94,33.94,0,0,1,64.12,0l0,.11H89.8V35.19l-4.24-.5c-2.62-.3-3.17-1.46-3.89-2.93l-.18-.35a37.62,37.62,0,0,0-68,0l-.18.36c-.71,1.46-1.27,2.62-3.89,2.92l-4.24.5v1.23h10.2Z"/><path class="cls-1" d="M79.59,58.56l0,.11a33.94,33.94,0,0,1-64.12,0l0-.1H5.2v1.23l4.24.5c2.62.3,3.18,1.46,3.89,2.92l.18.36a37.61,37.61,0,0,0,68,0l.18-.35c.71-1.46,1.27-2.62,3.89-2.93l4.24-.5V58.56Z"/><path class="cls-1" d="M29.42,40a8.94,8.94,0,0,1,7.28-3.23A8.93,8.93,0,0,1,44,40a12.93,12.93,0,0,1,2.69,8.55,12.87,12.87,0,0,1-2.76,8.6,9,9,0,0,1-7.2,3.26,9,9,0,0,1-7.23-3.24,12.92,12.92,0,0,1-2.74-8.62A12.93,12.93,0,0,1,29.42,40Zm7.17-.22A6.06,6.06,0,0,0,31.92,42q-2,2.24-2,6.54A9.59,9.59,0,0,0,32,55a6.08,6.08,0,0,0,4.74,2.29A6.17,6.17,0,0,0,41.34,55a9.31,9.31,0,0,0,2.09-6.46c0-2.9-.65-5.08-2-6.56A6.28,6.28,0,0,0,36.59,39.75Z"/><path class="cls-1" d="M62.62,37.16h4A90.86,90.86,0,0,0,54.16,51.93h8.6V46.42h3.09v5.51h3.36v2.84H65.85V60H62.76V54.77H50V52.59q2.56-3.86,6-8.08A77.52,77.52,0,0,1,62.62,37.16Z"/></svg>