<svg id="Capa_1" data-name="Capa 1" xmlns="http://www.w3.org/2000/svg" viewBox="0 0 95 95"><defs><style>.cls-1{fill:#fff;}</style></defs><title>Tip_Numero 2</title><path class="cls-1" d="M15.43,36.31a33.94,33.94,0,0,1,64.12,0l0,.11H89.8V35.19l-4.24-.5c-2.62-.3-3.17-1.46-3.89-2.93l-.18-.35a37.62,37.62,0,0,0-68,0l-.18.36c-.71,1.46-1.27,2.62-3.89,2.92l-4.24.5v1.23h10.2Z"/><path class="cls-1" d="M79.59,58.56l0,.11a33.94,33.94,0,0,1-64.12,0l0-.1H5.2v1.23l4.24.5c2.62.3,3.18,1.46,3.89,2.92l.18.36a37.61,37.61,0,0,0,68,0l.18-.35c.71-1.46,1.27-2.62,3.89-2.93l4.24-.5V58.56Z"/><path class="cls-1" d="M29.79,40a8.92,8.92,0,0,1,7.27-3.23A8.94,8.94,0,0,1,44.34,40,12.93,12.93,0,0,1,47,48.52a12.87,12.87,0,0,1-2.76,8.6,9,9,0,0,1-7.21,3.26,9,9,0,0,1-7.22-3.24,12.92,12.92,0,0,1-2.74-8.62A12.93,12.93,0,0,1,29.79,40ZM37,39.75A6.06,6.06,0,0,0,32.29,42q-2,2.24-2,6.54a9.57,9.57,0,0,0,2,6.48,6.08,6.08,0,0,0,4.73,2.29A6.17,6.17,0,0,0,41.71,55a9.31,9.31,0,0,0,2.09-6.46q0-4.34-2-6.56A6.26,6.26,0,0,0,37,39.75Z"/><path class="cls-1" d="M66.11,40.14H55.41l-.6,5.58A18.31,18.31,0,0,1,59,45.26a9.92,9.92,0,0,1,6.54,2,6.53,6.53,0,0,1,2.41,5.3,7.1,7.1,0,0,1-2.53,5.61,10.36,10.36,0,0,1-7.05,2.21,25.15,25.15,0,0,1-7.4-1.3V56a27.43,27.43,0,0,0,7.26,1.33,8,8,0,0,0,4.75-1.21,4,4,0,0,0,1.71-3.49A3.63,3.63,0,0,0,63,49.49a7.71,7.71,0,0,0-4.53-1.18,29.52,29.52,0,0,0-7,1.06l1.26-12.21h13.4Z"/></svg>