<svg id="Capa_1" data-name="Capa 1" xmlns="http://www.w3.org/2000/svg" viewBox="0 0 95 95"><defs><style>.cls-1{fill:#fff;}</style></defs><title>Tip_Numero 2</title><path class="cls-1" d="M15.43,36.31a33.94,33.94,0,0,1,64.12,0l0,.11H89.8V35.19l-4.24-.5c-2.62-.3-3.17-1.46-3.89-2.93l-.18-.35a37.62,37.62,0,0,0-68,0l-.18.36c-.71,1.46-1.27,2.62-3.89,2.92l-4.24.5v1.23h10.2Z"/><path class="cls-1" d="M79.59,58.56l0,.11a33.94,33.94,0,0,1-64.12,0l0-.1H5.2v1.23l4.24.5c2.62.3,3.18,1.46,3.89,2.92l.18.36a37.61,37.61,0,0,0,68,0l.18-.35c.71-1.46,1.27-2.62,3.89-2.93l4.24-.5V58.56Z"/><path class="cls-1" d="M30.7,40A8.94,8.94,0,0,1,38,36.74,9,9,0,0,1,45.26,40a13,13,0,0,1,2.68,8.55,12.92,12.92,0,0,1-2.75,8.6A9,9,0,0,1,38,60.38a9,9,0,0,1-7.23-3.24A13,13,0,0,1,28,48.52,12.93,12.93,0,0,1,30.7,40Zm7.17-.21A6,6,0,0,0,33.21,42q-2,2.24-2,6.54a9.57,9.57,0,0,0,2,6.48A6.08,6.08,0,0,0,38,57.29,6.17,6.17,0,0,0,42.62,55a9.26,9.26,0,0,0,2.09-6.46c0-2.89-.65-5.08-2-6.55A6.25,6.25,0,0,0,37.87,39.76Z"/><path class="cls-1" d="M67.9,37.16v2A105.67,105.67,0,0,0,57.09,60l-3.36,0A103.57,103.57,0,0,1,64,40.07H51.13V37.16Z"/></svg>