<svg id="Capa_1" data-name="Capa 1" xmlns="http://www.w3.org/2000/svg" viewBox="0 0 95 95"><defs><style>.cls-1{fill:#fff;}</style></defs><title>Tip_Numero 2</title><path class="cls-1" d="M15.43,36.31a33.94,33.94,0,0,1,64.12,0l0,.11H89.8V35.19l-4.24-.5c-2.62-.3-3.17-1.46-3.89-2.93l-.18-.35a37.62,37.62,0,0,0-68,0l-.18.36c-.71,1.46-1.27,2.62-3.89,2.92l-4.24.5v1.23h10.2Z"/><path class="cls-1" d="M79.59,58.56l0,.11a33.94,33.94,0,0,1-64.12,0l0-.1H5.2v1.23l4.24.5c2.62.3,3.18,1.46,3.89,2.92l.18.36a37.61,37.61,0,0,0,68,0l.18-.35c.71-1.46,1.27-2.62,3.89-2.93l4.24-.5V58.56Z"/><path class="cls-1" d="M33.38,40a9,9,0,0,1,7.28-3.23A9,9,0,0,1,47.94,40a12.93,12.93,0,0,1,2.68,8.55,12.92,12.92,0,0,1-2.75,8.6,9,9,0,0,1-7.21,3.26,9,9,0,0,1-7.23-3.24,13,13,0,0,1-2.73-8.62A12.93,12.93,0,0,1,33.38,40Zm7.17-.22A6,6,0,0,0,35.89,42q-2,2.24-2,6.54a9.59,9.59,0,0,0,2,6.48,6.1,6.1,0,0,0,4.74,2.29A6.17,6.17,0,0,0,45.31,55a9.31,9.31,0,0,0,2.08-6.46c0-2.9-.65-5.08-2-6.56A6.28,6.28,0,0,0,40.55,39.75Z"/><path class="cls-1" d="M62.51,60H59.43V40.6l-5.65,1.54V39.26l8.73-2.52Z"/></svg>