<svg id="Capa_1" data-name="Capa 1" xmlns="http://www.w3.org/2000/svg" viewBox="0 0 95 95"><defs><style>.cls-1{fill:#fff;}</style></defs><title>Tip_Numero 2</title><path class="cls-1" d="M15.43,36.31a33.94,33.94,0,0,1,64.12,0l0,.11H89.8V35.19l-4.24-.5c-2.62-.3-3.17-1.46-3.89-2.93l-.18-.35a37.62,37.62,0,0,0-68,0l-.18.36c-.71,1.46-1.27,2.62-3.89,2.92l-4.24.5v1.23h10.2Z"/><path class="cls-1" d="M79.59,58.56l0,.11a33.94,33.94,0,0,1-64.12,0l0-.1H5.2v1.23l4.24.5c2.62.3,3.18,1.46,3.89,2.92l.18.36a37.61,37.61,0,0,0,68,0l.18-.35c.71-1.46,1.27-2.62,3.89-2.93l4.24-.5V58.56Z"/><path class="cls-1" d="M29.86,40a8.92,8.92,0,0,1,7.27-3.23A8.94,8.94,0,0,1,44.41,40a12.93,12.93,0,0,1,2.69,8.55,12.87,12.87,0,0,1-2.76,8.6,9,9,0,0,1-7.21,3.26,9,9,0,0,1-7.22-3.24,12.92,12.92,0,0,1-2.74-8.62A12.93,12.93,0,0,1,29.86,40ZM37,39.76A6,6,0,0,0,32.36,42q-2,2.24-2,6.54a9.57,9.57,0,0,0,2,6.48,6.08,6.08,0,0,0,4.73,2.29A6.17,6.17,0,0,0,41.78,55a9.31,9.31,0,0,0,2.09-6.46c0-2.89-.66-5.08-2-6.55A6.22,6.22,0,0,0,37,39.76Z"/><path class="cls-1" d="M67,39.54l-7.3,6.74a12.17,12.17,0,0,1,2.85.39,10.69,10.69,0,0,1,2.64,1.07,5.24,5.24,0,0,1,2,2,6.1,6.1,0,0,1,.75,3.07,6.49,6.49,0,0,1-2.63,5.61,11.77,11.77,0,0,1-7.12,1.93,27.09,27.09,0,0,1-7-1.19V56A29.39,29.39,0,0,0,58,57.29c4.35,0,6.55-1.49,6.6-4.49a3.09,3.09,0,0,0-2.44-3.28,12.9,12.9,0,0,0-2.42-.47C59,49,58,49,56.74,49H55.16V46.74l7-6.6h-11v-3H67Z"/></svg>