<svg id="Capa_1" data-name="Capa 1" xmlns="http://www.w3.org/2000/svg" viewBox="0 0 95 95"><defs><style>.cls-1{fill:#fff;}</style></defs><title>Tip</title><path class="cls-1" d="M47.5,69.75c-25.41,0-46.07-10-46.07-22.25S22.09,25.25,47.5,25.25s46.07,10,46.07,22.25S72.91,69.75,47.5,69.75Zm0-43.08C22.88,26.67,2.84,36,2.84,47.5s20,20.83,44.66,20.83S92.16,59,92.16,47.5,72.12,26.67,47.5,26.67Z"/><path class="cls-1" d="M52.35,58.62c-5.76,0-23.09-.47-23.26-.48a4,4,0,0,1-4-4V41.08a4,4,0,0,1,4-4c.14,0,17.48-.71,23.24-.71,7.21,0,29,.71,29.18.72l.69,0v21h-.7C81.31,58.15,59.56,58.62,52.35,58.62Zm0-20.82c-5.73,0-23,.71-23.21.71a2.57,2.57,0,0,0-2.59,2.57V54.16a2.56,2.56,0,0,0,2.56,2.56c.19,0,17.5.48,23.24.48,6.46,0,24.66-.38,28.45-.46V38.49C77,38.37,58.81,37.8,52.35,37.8Z"/><path class="cls-1" d="M13.66,46.26v1.61H14V46.19a.51.51,0,0,0-.53-.46.5.5,0,0,0-.52.44.62.62,0,0,0,0,.12v1.14a.16.16,0,0,1-.16.11.14.14,0,0,1-.14-.12.25.25,0,0,1,0-.1V45.84H12.3v1.65a.51.51,0,0,0,.51.43.49.49,0,0,0,.5-.43.92.92,0,0,0,0-.16V46.27a.17.17,0,0,1,.17-.15.16.16,0,0,1,.17.14"/><path class="cls-1" d="M13.66,49.17v1.61H14V49.1a.51.51,0,0,0-.53-.46.5.5,0,0,0-.52.44.62.62,0,0,0,0,.12v1.13a.15.15,0,0,1-.16.11.13.13,0,0,1-.14-.11.28.28,0,0,1,0-.11V48.75H12.3V50.4a.51.51,0,0,0,.51.43.49.49,0,0,0,.5-.43.92.92,0,0,0,0-.16V49.18a.17.17,0,0,1,.34,0"/><rect class="cls-1" x="12.28" y="51.58" width="1.75" height="0.39"/><polygon class="cls-1" points="14.03 52.83 12.28 52.83 12.28 53.21 13.59 53.21 12.28 54.5 12.28 55 14.03 55 14.03 54.61 12.72 54.61 14.03 53.31 14.03 52.83"/><polygon class="cls-1" points="12.28 40.39 13.59 40.39 12.28 41.68 12.28 42.17 14.03 42.17 14.03 41.79 12.72 41.79 14.03 40.49 14.03 40 12.28 40 12.28 40.39"/><path class="cls-1" d="M12.28,44.19,14,45.27V44.8l-.31-.19V43.34l.31-.19v-.47l-1.75,1.09Zm1.11-.65v.87l-.7-.44Z"/><path class="cls-1" d="M11.29,52.85a5.67,5.67,0,0,1,0-10.7h0v-1.7h-.2l-.09.71a.67.67,0,0,1-.49.64l-.06,0a6.28,6.28,0,0,0,0,11.35l.06,0a.7.7,0,0,1,.49.65l.08.71h.21V52.85Z"/><path class="cls-1" d="M15,42.14h0a5.67,5.67,0,0,1,0,10.7h0v1.7h.21l.08-.7a.69.69,0,0,1,.49-.65l.06,0a6.28,6.28,0,0,0,0-11.35l-.06,0a.7.7,0,0,1-.49-.65l-.08-.7H15Z"/><rect class="cls-1" x="29.38" y="46.11" width="16.17" height="2.78" rx="1.39" transform="translate(-10.03 84.97) rotate(-90)"/><rect class="cls-1" x="37.23" y="37.16" width="0.47" height="20.68"/><rect class="cls-1" x="44.73" y="46.11" width="16.17" height="2.78" rx="1.39" transform="translate(5.32 100.32) rotate(-90)"/><rect class="cls-1" x="52.58" y="37.16" width="0.47" height="20.68"/><rect class="cls-1" x="59.73" y="46.11" width="16.17" height="2.78" rx="1.39" transform="translate(20.32 115.32) rotate(-90)"/><rect class="cls-1" x="67.58" y="37.16" width="0.47" height="20.68"/><path class="cls-1" d="M84.26,56.71V38.29l1.12.82c3.47,2.54,5.3,5.44,5.3,8.39s-1.83,5.85-5.3,8.39Zm1.41-15.56v12.7c2.39-2,3.59-4.16,3.59-6.35S88.06,43.18,85.67,41.15Z"/></svg>