<svg id="Capa_1" data-name="Capa 1" xmlns="http://www.w3.org/2000/svg" viewBox="0 0 95 95"><defs><style>.cls-1{fill:#fff;}</style></defs><title>Tip</title><path class="cls-1" d="M35.24,2.75s0,0,0,0C31.56,4.53,25.06,14.61,25.06,14.61c-1,1.53-2.19,3.53-2.28,5.41a1.57,1.57,0,0,0,.38,1.2,2.49,2.49,0,0,0,1.05.53l2.4.73a4.29,4.29,0,0,0,1.26.26l.29,0c1.16-.17,2.3-1.53,3-2.4.56-.69,1.1-1.4,1.65-2.1l6.66-7.43a19.16,19.16,0,0,1,4.29-4.33,5.17,5.17,0,0,1,2.34-1h.19c1.17,0,2.08,1,2.79,1.87a12.6,12.6,0,0,1,2.45,9.52c-.55,4.31-2.75,8.21-5,12S42,36.36,41.2,40.62a23.94,23.94,0,0,1-1,4.69,11.51,11.51,0,0,1-2,3,6.74,6.74,0,0,1-3.09,2.28,4.32,4.32,0,0,1-1.13.14,7.32,7.32,0,0,1-2.71-.61,18.06,18.06,0,0,1-8-7,40,40,0,0,1-5-11.59,15.7,15.7,0,0,1-.73-5.77,17,17,0,0,1,1.56-5.43c1.6-3.49,4-6.53,6.2-9.65C30.07,4,34.59,2.88,35.24,2.75h0m0-.75h-.08l-.07,0c-.89.18-5.53,1.42-10.36,8.25-.39.56-.79,1.12-1.2,1.67A50.14,50.14,0,0,0,18.46,20a17.78,17.78,0,0,0-1.62,5.67,16.89,16.89,0,0,0,.75,6,40.92,40.92,0,0,0,5.08,11.82A18.7,18.7,0,0,0,31,50.79a8,8,0,0,0,3,.67,4.8,4.8,0,0,0,1.33-.17,7.42,7.42,0,0,0,3.46-2.51,12.36,12.36,0,0,0,2.1-3.18,14.81,14.81,0,0,0,.85-3.52c.07-.43.14-.88.22-1.32.78-4,3-7.64,5-11.18l.23-.39c2.35-4,4.51-7.88,5.07-12.23A13.31,13.31,0,0,0,49.64,6.87c-.66-.81-1.78-2.15-3.36-2.15H46a6.1,6.1,0,0,0-2.69,1.1,20.48,20.48,0,0,0-4.45,4.47l-6.64,7.42,0,0,0,0-.54.7-1.09,1.4c-.39.49-1.57,2-2.52,2.12h-.18a4,4,0,0,1-1-.22L24.43,21a2.06,2.06,0,0,1-.73-.33.88.88,0,0,1-.17-.64c.08-1.61,1.09-3.38,2.16-5,1.78-2.76,7-10.2,9.88-11.57l.54-.26L36,2.59,35.85,2Z"/><path class="cls-1" d="M38.38,3.12h.38A17.27,17.27,0,0,1,43.54,4l.64.24a11.77,11.77,0,0,0-2.82,1.34,20.15,20.15,0,0,0-3.46,3.1,123.16,123.16,0,0,0-8.29,9.79,3.93,3.93,0,0,1-.8.86,1.86,1.86,0,0,1-1,.27,2.89,2.89,0,0,1-.5,0,5.34,5.34,0,0,1-1-.32,6.1,6.1,0,0,0-1.37-.4,1.62,1.62,0,0,1-.73-.21v0a2.07,2.07,0,0,1,.16-.92,12.43,12.43,0,0,1,.75-1.56l.24-.45a25.32,25.32,0,0,1,1.93-3.12c1.1-1.55,2.37-3,3.59-4.49.32-.38.65-.76,1-1.14l.09-.11A11.78,11.78,0,0,1,35,3.9a7.11,7.11,0,0,1,3.42-.78m0-.75a7.82,7.82,0,0,0-3.78.88,12.5,12.5,0,0,0-3.38,3.19c-1.55,1.84-3.18,3.7-4.59,5.68a27.1,27.1,0,0,0-2,3.2,19.86,19.86,0,0,0-1,2.11,2.93,2.93,0,0,0-.2,1.26c.09.68.81.8,1.37.89.82.12,1.54.58,2.37.72a3.18,3.18,0,0,0,.62.05,2.52,2.52,0,0,0,1.45-.4,4.09,4.09,0,0,0,1-1,125.14,125.14,0,0,1,8.24-9.72,19.72,19.72,0,0,1,3.33-3,10.26,10.26,0,0,1,4-1.57.14.14,0,0,0,0-.25c-.3-.2-.67-.5-.86-.59a11.59,11.59,0,0,0-1.22-.5,18,18,0,0,0-5-.91Z"/><path class="cls-1" d="M47.41,7a2.78,2.78,0,0,1,.25,1.54,7.63,7.63,0,0,1-.28,1.56A15.48,15.48,0,0,1,46.2,13c-.48.94-1,1.84-1.6,2.73a28.29,28.29,0,0,1-1.83,2.57,55.75,55.75,0,0,0-3.56,5.12A21.56,21.56,0,0,0,36.63,29v.06a17.3,17.3,0,0,0-.93,3.8,24.9,24.9,0,0,0-.27,3.95,29.24,29.24,0,0,0,.33,4c.08.67.24,1.31.36,2s.32,1.29.48,2c-.21-.64-.45-1.27-.64-1.91s-.37-1.29-.49-2a25.62,25.62,0,0,1-.53-4,24.9,24.9,0,0,1,.13-4,17.6,17.6,0,0,1,.92-4l0,.06a20.28,20.28,0,0,1,2.64-5.79,58.4,58.4,0,0,1,3.67-5.14,35.91,35.91,0,0,0,3.57-5.1A16.61,16.61,0,0,0,47.15,10a7.11,7.11,0,0,0,.38-1.51A2.81,2.81,0,0,0,47.41,7Z"/><path class="cls-1" d="M52.28,19a20.63,20.63,0,0,1-1.1,5.43,24.06,24.06,0,0,1-1,2.59,26.37,26.37,0,0,1-1.31,2.46h0A37.54,37.54,0,0,0,44.9,37a29.13,29.13,0,0,0-1.19,4.07,17.92,17.92,0,0,0-.38,4.19v0L43,51c-.06,1-.09,1.92-.19,2.88l-.3,2.88v-.11a8.86,8.86,0,0,1,.11,2.91,2.5,2.5,0,0,1-.67,1.46,1.39,1.39,0,0,1-.38.25,2.63,2.63,0,0,1-.35.15,3.83,3.83,0,0,1-.74.19,3.35,3.35,0,0,1-1.54-.07c-.5-.17-.89-.37-1.33-.55L35,59.93h0A3.69,3.69,0,0,1,34,59a6.42,6.42,0,0,1-.64-1.1A7.19,7.19,0,0,1,33,56.71a10.1,10.1,0,0,1-.28-1.21s0,0,0,0V54.32A.29.29,0,0,1,33,54a.28.28,0,0,1,.25.15,7.81,7.81,0,0,0,.64.94,6.79,6.79,0,0,0,.77.84,4.45,4.45,0,0,0,1.94,1.08l0,0a4.57,4.57,0,0,0,1.69.42,1.34,1.34,0,0,0,.76-.19,1,1,0,0,0,.41-.63v0l.66-5,.68-5-.47,5-.49,5h0a1.43,1.43,0,0,1-.56.89,1.8,1.8,0,0,1-1,.28,5.11,5.11,0,0,1-1.89-.43l0,0a5,5,0,0,1-2.19-1.16,8.83,8.83,0,0,1-.85-.88,8.27,8.27,0,0,1-.71-1l.53-.14v1.07a10.56,10.56,0,0,0,.29,1.14A10.06,10.06,0,0,0,34,57.61a6.32,6.32,0,0,0,.58,1,3,3,0,0,0,.76.75h0l2.58,1.08c.42.18.87.39,1.26.51a2.64,2.64,0,0,0,1.22,0A3.35,3.35,0,0,0,41,60.8a2.52,2.52,0,0,0,.29-.12.9.9,0,0,0,.2-.14,1.92,1.92,0,0,0,.45-1,8.46,8.46,0,0,0-.12-2.65h0v-.1l.29-2.87c.1-1,.14-1.92.21-2.88l.38-5.75v0a21.42,21.42,0,0,1,1.7-8.49,35.83,35.83,0,0,1,1.86-3.91A34.92,34.92,0,0,1,48.5,29.2h0c.49-.78.95-1.57,1.36-2.39A24.74,24.74,0,0,0,51,24.3a26.69,26.69,0,0,0,.82-2.63A17.82,17.82,0,0,0,52.28,19Z"/><path class="cls-1" d="M36.52,55.51a5.13,5.13,0,0,1-1.3-.22l-.31-.08A15.74,15.74,0,0,1,33,54.63a6,6,0,0,1-2.61-1.54A4.83,4.83,0,0,1,29.28,50l0-.32,0-.79.64.47a5,5,0,0,0,2,.88,6.52,6.52,0,0,0,3.13.1,5.78,5.78,0,0,0,2.63-1.57l.14-.13a5.26,5.26,0,0,0,.52-.55.2.2,0,0,0,0,.11h0l.74-.05h0a12.2,12.2,0,0,1-.14,2.42l0,.15a25.39,25.39,0,0,1-.5,2.83c-.1.44-.43,1.8-1.48,2A2,2,0,0,1,36.52,55.51Zm-6.46-5.16a3.76,3.76,0,0,0,.87,2.24,5.45,5.45,0,0,0,2.31,1.34,16.9,16.9,0,0,0,1.84.55l.32.08a3.62,3.62,0,0,0,1.34.19c.37-.06.67-.53.87-1.4a26.31,26.31,0,0,0,.49-2.75l0-.15c.05-.43.1-.86.13-1.29l-.11.1a6.53,6.53,0,0,1-3,1.78,7.12,7.12,0,0,1-3.47-.1A5.9,5.9,0,0,1,30.06,50.35Z"/><path class="cls-1" d="M33.88,53.33h0a4.42,4.42,0,0,1-3-1.29.38.38,0,0,1,.06-.53.39.39,0,0,1,.53.06,3.76,3.76,0,0,0,2.49,1,.38.38,0,0,1,.34.41A.37.37,0,0,1,33.88,53.33Z"/><path class="cls-1" d="M52.68,19.64a8.61,8.61,0,0,1,.71,3,13.65,13.65,0,0,1-.16,3.13,15.39,15.39,0,0,1-.33,1.53c-.12.51-.3,1-.47,1.5s-.38,1-.57,1.45-.46.94-.69,1.41v0l0,0a17.05,17.05,0,0,0-1.22,2c-.35.72-.69,1.45-1,2.2s-.55,1.51-.76,2.29-.39,1.57-.57,2.37a19.35,19.35,0,0,1,.81-4.84,17.48,17.48,0,0,1,.89-2.31,13.07,13.07,0,0,1,1.23-2.18l0,0L51.17,30c.2-.47.41-.93.58-1.4a21,21,0,0,0,.87-2.9,16.64,16.64,0,0,0,.38-3A10.64,10.64,0,0,0,52.68,19.64Z"/><path class="cls-1" d="M52.28,29.78a47.76,47.76,0,0,0,1.22,6.61c.53,2.17,1.17,4.32,1.83,6.46s1.31,4.3,1.89,6.47c.14.52.35,1,.53,1.58a4.52,4.52,0,0,1,.3,1.79,3.5,3.5,0,0,1-.7,1.71c-.33.48-.65.92-1,1.38a39.33,39.33,0,0,1-4.47,5.11,18.53,18.53,0,0,1-5.66,3.78,9.31,9.31,0,0,1-3.34.81,6.94,6.94,0,0,1-3.35-.81,9.11,9.11,0,0,1-2.6-2.18,12,12,0,0,1-1.79-2.86,11,11,0,0,0,4.56,4.72,6.56,6.56,0,0,0,3.16.65A8.76,8.76,0,0,0,46,64.14a19.27,19.27,0,0,0,5.42-3.75,38.22,38.22,0,0,0,4.34-5.06c.34-.44.67-.9,1-1.34a2.75,2.75,0,0,0,.58-1.36c.09-1-.48-2-.77-3.13C56,47.33,55.37,45.18,54.78,43s-1.18-4.34-1.64-6.54A42.09,42.09,0,0,1,52.28,29.78Z"/><path class="cls-1" d="M57.56,53.87l4.1,16.28,0,.15-.11.1-9.2,8.14,0,0h0a6.16,6.16,0,0,1-1.67-.12A7.3,7.3,0,0,1,49,78a8.86,8.86,0,0,1-1.44-.81,9.23,9.23,0,0,1-1.25-1.08h0l-7.47-12L46.51,76v0a9.41,9.41,0,0,0,1.24,1,7.28,7.28,0,0,0,1.4.76,7,7,0,0,0,1.54.45,6,6,0,0,0,1.58.09l-.09,0L61.25,70l-.08.25L56.84,54.06Z"/><path class="cls-1" d="M43.6,86.35h-.1A3.39,3.39,0,0,1,42.35,86,48.64,48.64,0,0,1,37,82.71l-.63-.42a1.77,1.77,0,0,1-.7-1.24,3.23,3.23,0,0,1,1.21-2.49c2-2.14,4.15-4.4,6.71-6.88l.52.54c-2.54,2.47-4.73,4.71-6.68,6.86a2.66,2.66,0,0,0-1,1.9,1,1,0,0,0,.38.68l.63.43a50,50,0,0,0,5.26,3.21,2.7,2.7,0,0,0,.88.3c.62,0,1.75-1,2.41-1.69.23-.22.43-.42.59-.56l6.24-5.42c.64-.56,1.3-1.11,2-1.66,1.3-1.08,2.65-2.2,3.84-3.39L79.49,54.74l-1.32-.42c-3.26-1.09-6.3,0-9.52,1.18a70,70,0,0,0-9,4.07l-.76.43-.37-.66.78-.43a69.18,69.18,0,0,1,9.1-4.11c3.21-1.17,6.52-2.37,10-1.19l2.58.82-21.86,19c-1.2,1.2-2.56,2.32-3.88,3.42-.66.54-1.32,1.09-2,1.65l-6.24,5.42c-.15.13-.34.31-.55.52C45.63,85.3,44.56,86.35,43.6,86.35Z"/><path class="cls-1" d="M34.47,93.9a6.3,6.3,0,0,1-3-.88L22,86.83a2.06,2.06,0,0,1-1.13-1.42c-.16-1,.43-2,1.75-3.25L41.1,67.67l.46.59L23.11,82.73c-1.08,1-1.6,1.87-1.49,2.54a1.35,1.35,0,0,0,.72.89l.06,0,9.46,6.19c3.49,1.89,4.91-.26,5-.35L36.9,92,89.1,46.86a1.48,1.48,0,0,0,.58-1.14,1.09,1.09,0,0,0-.5-.7L79.6,41.65c-3.34-1.25-4.52-.11-4.53-.1L73.25,43,57.72,55.6,57.25,55,72.78,42.38,74.55,41c.22-.21,1.7-1.42,5.3-.07l9.68,3.41a1.89,1.89,0,0,1,.89,1.28,2.13,2.13,0,0,1-.81,1.78L37.43,92.49A3.69,3.69,0,0,1,34.47,93.9Z"/><path class="cls-1" d="M30.17,79.33a5.68,5.68,0,0,0-.55.83,3.2,3.2,0,0,0-.36.91,2,2,0,0,0,0,.9,1.81,1.81,0,0,0,.46.73l0,0c1.27.68,2.52,1.39,3.77,2.11s2.47,1.48,3.69,2.24l0,0h0a4.08,4.08,0,0,0,1,.62,3.25,3.25,0,0,0,1.16.29,3.12,3.12,0,0,0,1.21-.12,5.16,5.16,0,0,0,1.14-.54,3.84,3.84,0,0,1-1.06.75,3.23,3.23,0,0,1-1.3.32,3.69,3.69,0,0,1-1.35-.2,4.43,4.43,0,0,1-1.22-.63l0,0c-1.26-.7-2.51-1.41-3.74-2.15s-2.46-1.48-3.67-2.27l0,0h0A1.94,1.94,0,0,1,28.94,81,4,4,0,0,1,30.17,79.33Z"/></svg>