<svg id="Capa_1" data-name="Capa 1" xmlns="http://www.w3.org/2000/svg" viewBox="0 0 95 95"><defs><style>.cls-1{fill:#fff;}</style></defs><title>Tip</title><path class="cls-1" d="M58.56,6a3.7,3.7,0,0,0-3.64-3C26.37,3,3,22.77,3,47.5S26.37,92,54.92,92a3.7,3.7,0,0,0,3.64-3l.38-2.06a230.51,230.51,0,0,0,0-78.78ZM51.82,84.5c-23.24-1.33-41.4-17.53-41.4-37s18.17-35.67,41.41-37A222.78,222.78,0,0,1,51.82,84.5Z"/><path class="cls-1" d="M67.84,28.43,86.38,39.55A3.71,3.71,0,1,0,90.2,33.2L71.66,22.07a3.71,3.71,0,0,0-3.82,6.36Z"/><path class="cls-1" d="M90.2,55.44,71.66,44.32a3.71,3.71,0,0,0-3.82,6.36L86.38,61.8a3.71,3.71,0,1,0,3.82-6.36Z"/><path class="cls-1" d="M90.2,77.69,71.66,66.57a3.71,3.71,0,0,0-3.82,6.36L86.38,84.05a3.71,3.71,0,1,0,3.82-6.36Z"/></svg>