<svg id="Capa_1" data-name="Capa 1" xmlns="http://www.w3.org/2000/svg" viewBox="0 0 95 95"><defs><style>.cls-1{fill:#fff;}</style></defs><title>Tip</title><path class="cls-1" d="M47.93,94.43A46.22,46.22,0,1,1,94.14,48.22,46.26,46.26,0,0,1,47.93,94.43Zm0-90.75A44.54,44.54,0,1,0,92.46,48.22,44.59,44.59,0,0,0,47.93,3.68Z"/><path class="cls-1" d="M48.58,83.53H43.11a5.15,5.15,0,0,1-4.55-3.62L35.1,64.82c-.85-.81-4.19-4.08-5.48-7.14L14.53,56.15A5.44,5.44,0,0,0,12,57.53l-1,2-.57-2.14c-.1-.38-2.44-9.38-.28-17L11,37.26l.76,3.09a2.2,2.2,0,0,0,2.12,1.7l18.14-3.34a11.07,11.07,0,0,1,2.33-.38c1.35-.79,8.06-4.57,13.35-4.62s12.19,3.84,13.55,4.62a11.31,11.31,0,0,1,2.38.39l18.09,3.33a2.21,2.21,0,0,0,2.13-1.71l.78-3,.84,3c2.17,7.67-.18,16.67-.28,17l-.57,2.14-1-2a5.56,5.56,0,0,0-2.52-1.38L66.05,57.68c-1.3,3.06-4.63,6.33-5.49,7.14l-3.44,15a5.17,5.17,0,0,1-4.52,3.68ZM14.37,54.45l16.46,1.66.17.51c1.11,3.18,5.39,7.1,5.43,7.14l.19.17,3.57,15.55a3.44,3.44,0,0,0,3,2.37h9.4a3.49,3.49,0,0,0,2.94-2.43L59,63.93l.2-.17s4.31-4,5.42-7.14l.18-.51,16.45-1.66.16,0a10.64,10.64,0,0,1,2.46,1,37,37,0,0,0,.43-12.8,3.49,3.49,0,0,1-2.74,1h-.1L63.31,40.36A11.36,11.36,0,0,0,61.24,40l-.34.1-.25-.2c-.08,0-7.6-4.46-12.92-4.52S35.1,39.85,35,39.9l-.31.19-.35-.1a17.44,17.44,0,0,0-2,.36L14.07,43.72a3.47,3.47,0,0,1-2.74-1,36.54,36.54,0,0,0,.43,12.8,10.46,10.46,0,0,1,2.46-1Z"/><path class="cls-1" d="M67.19,81.64,57.19,80l-.81,0a.85.85,0,0,1-.8-.88.83.83,0,0,1,.88-.8l.95,0,9.45,1.53a36.9,36.9,0,1,0-55-39.45A37.51,37.51,0,0,0,11,48.22a36.74,36.74,0,0,0,17,31h4.78L39,78a.84.84,0,1,1,.32,1.65l-6.5,1.25H27.49l-.2-.13a38.57,38.57,0,1,1,40.16.68Z"/><path class="cls-1" d="M47.93,56.94a8.72,8.72,0,1,1,8.72-8.72A8.74,8.74,0,0,1,47.93,56.94Zm0-15.76a7,7,0,1,0,7,7A7,7,0,0,0,47.93,41.18Z"/></svg>