<svg id="Capa_1" data-name="Capa 1" xmlns="http://www.w3.org/2000/svg" viewBox="0 0 95 95"><defs><style>.cls-1{fill:#fff;}</style></defs><title>Tip</title><path class="cls-1" d="M80.5,87.38a1.37,1.37,0,0,1-1-2.33,36.24,36.24,0,1,0-51.25,0A1.36,1.36,0,1,1,26.35,87,39,39,0,1,1,92.88,59.42,38.72,38.72,0,0,1,81.47,87,1.36,1.36,0,0,1,80.5,87.38Z"/><path class="cls-1" d="M53.91,37.58a1.36,1.36,0,0,1-1.37-1.36V21.82a1.37,1.37,0,1,1,2.73,0v14.4A1.36,1.36,0,0,1,53.91,37.58Z"/><path class="cls-1" d="M53.91,61.25a1.79,1.79,0,0,1-1.29-.54l-25.8-25.8a1.82,1.82,0,0,1,2.58-2.58l25.8,25.8a1.83,1.83,0,0,1-1.29,3.12Z"/><path class="cls-1" d="M30.7,60.79H16.3a1.37,1.37,0,0,1,0-2.74H30.7a1.37,1.37,0,0,1,0,2.74Z"/><path class="cls-1" d="M27.31,87.38a1.32,1.32,0,0,1-1-.4,1.35,1.35,0,0,1,0-1.93L36.53,74.86a1.37,1.37,0,1,1,1.93,1.94L28.28,87A1.36,1.36,0,0,1,27.31,87.38Z"/><path class="cls-1" d="M80.5,87.38a1.36,1.36,0,0,1-1-.4L69.35,76.8a1.37,1.37,0,0,1,1.93-1.94L81.47,85.05a1.37,1.37,0,0,1-1,2.33Z"/><path class="cls-1" d="M91.51,60.79H77.11a1.37,1.37,0,0,1,0-2.74h14.4a1.37,1.37,0,0,1,0,2.74Z"/><path class="cls-1" d="M70.32,44.38a1.35,1.35,0,0,1-1-.4,1.36,1.36,0,0,1,0-1.94L79.53,31.86a1.37,1.37,0,0,1,1.94,1.94L71.28,44A1.32,1.32,0,0,1,70.32,44.38Z"/><path class="cls-1" d="M21.93,12.63a.51.51,0,0,0-.55.11L17.5,16.62,8.64,7.76a.51.51,0,0,0-.71,0L2.27,13.43a.5.5,0,0,0,0,.71L11.12,23,7.23,26.89a.5.5,0,0,0,.35.86l14.16,0a.5.5,0,0,0,.35-.14.49.49,0,0,0,.15-.36V13.09A.5.5,0,0,0,21.93,12.63Z"/><circle class="cls-1" cx="53.91" cy="59.42" r="8.21"/></svg>