<svg id="Capa_1" data-name="Capa 1" xmlns="http://www.w3.org/2000/svg" viewBox="0 0 95 95"><defs><style>.cls-1{fill:#fff;}</style></defs><title>Tip</title><path class="cls-1" d="M85.77,68.9H9.23A7.28,7.28,0,0,1,2,60.77L5.45,31.62a6.27,6.27,0,0,1,6.22-5.52H83.24a6.26,6.26,0,0,1,6.21,5.5L93,60.75a7.28,7.28,0,0,1-7.23,8.15ZM11.67,27.19a5.17,5.17,0,0,0-5.13,4.55L3.09,60.9a6.19,6.19,0,0,0,6.14,6.91H85.77a6.19,6.19,0,0,0,6.14-6.93L88.36,31.73a5.16,5.16,0,0,0-5.12-4.54Z"/><path class="cls-1" d="M10.08,58.43a3.16,3.16,0,1,1-3.16,3.15,3.15,3.15,0,0,1,3.16-3.15m0-1.1a4.26,4.26,0,1,0,4.25,4.25,4.25,4.25,0,0,0-4.25-4.25Z"/><path class="cls-1" d="M85.91,58.43a3.16,3.16,0,1,1-3.16,3.15,3.16,3.16,0,0,1,3.16-3.15m0-1.1a4.26,4.26,0,1,0,4.25,4.25,4.26,4.26,0,0,0-4.25-4.25Z"/><path class="cls-1" d="M15.57,50.42v2.52H4.45l.28-2.52H15.57M16,49.33H3.75L3.22,54H16a.65.65,0,0,0,.64-.65V50a.64.64,0,0,0-.64-.64Z"/><path class="cls-1" d="M15.57,35.58V47.27H5.14L6.49,35.58h9.08m.38-1.1H5.51L3.91,48.36H16a.71.71,0,0,0,.71-.71V35.2a.71.71,0,0,0-.71-.72Z"/><path class="cls-1" d="M15.72,39.39H5.37a.55.55,0,1,1,0-1.09H15.72a.55.55,0,1,1,0,1.09Z"/><path class="cls-1" d="M15.72,44.13H4.84a.54.54,0,0,1-.55-.55A.55.55,0,0,1,4.84,43H15.72a.55.55,0,0,1,.55.55A.55.55,0,0,1,15.72,44.13Z"/><path class="cls-1" d="M90,50.42l.29,2.52H79.17V50.42H90m1-1.09H78.72a.65.65,0,0,0-.65.64v3.42a.65.65,0,0,0,.65.65h12.8L91,49.33Z"/><path class="cls-1" d="M88.24,35.58l1.35,11.69H79.17V35.58h9.07m1-1.1H78.79a.72.72,0,0,0-.72.72V47.65a.71.71,0,0,0,.72.71h12L89.22,34.48Z"/><path class="cls-1" d="M89.36,39.39H79a.55.55,0,1,1,0-1.09H89.36a.55.55,0,1,1,0,1.09Z"/><path class="cls-1" d="M89.89,44.13H79a.55.55,0,0,1-.55-.55A.55.55,0,0,1,79,43H89.89a.55.55,0,0,1,.55.55A.54.54,0,0,1,89.89,44.13Z"/><path class="cls-1" d="M74.32,65.32H20.69a1.62,1.62,0,0,1-1.61-1.62V35.55a1.62,1.62,0,0,1,1.61-1.62H74.32a1.62,1.62,0,0,1,1.61,1.62V63.7A1.62,1.62,0,0,1,74.32,65.32ZM20.69,35a.52.52,0,0,0-.52.52V63.7a.52.52,0,0,0,.52.52H74.32a.51.51,0,0,0,.51-.52V35.55a.51.51,0,0,0-.51-.52Z"/><path class="cls-1" d="M81.84,32.23H13.17a1.34,1.34,0,0,1-1.34-1.34V29.68a1.35,1.35,0,0,1,1.34-1.34H81.84a1.35,1.35,0,0,1,1.34,1.34v1.21A1.34,1.34,0,0,1,81.84,32.23ZM13.17,29.44a.24.24,0,0,0-.24.24v1.21a.24.24,0,0,0,.24.24H81.84a.24.24,0,0,0,.24-.24V29.68a.24.24,0,0,0-.24-.24Z"/></svg>