<svg id="Capa_1" data-name="Capa 1" xmlns="http://www.w3.org/2000/svg" viewBox="0 0 95 95"><defs><style>.cls-1{fill:#fff;}</style></defs><title>Tip</title><path class="cls-1" d="M45.93,77.91a4.05,4.05,0,1,1-4,4.11A4,4,0,0,1,45.93,77.91Zm1.43,4a1.35,1.35,0,0,0-1.48-1.36A1.39,1.39,0,1,0,46,83.32C46.87,83.29,47.29,82.77,47.36,81.91Z"/><path class="cls-1" d="M44.65,9c.88,0,1.75,0,2.63,0a1.21,1.21,0,0,1,1.31,1.35,1.17,1.17,0,0,1-1.28,1.2c-1.81,0-3.61,0-5.42,0a1.19,1.19,0,0,1-1.32-1.33A1.19,1.19,0,0,1,41.86,9c.93,0,1.86,0,2.79,0Z"/><path class="cls-1" d="M52.82,11.59c-.87-.15-1.32-.61-1.23-1.46A1.14,1.14,0,0,1,52.93,9a1.17,1.17,0,0,1,1.21,1.26A1.27,1.27,0,0,1,52.82,11.59Z"/><path class="cls-1" d="M67.91,10.63c0-4.38-2.79-7.12-7.15-7.13q-14.88,0-29.76,0c-4,0-6.86,2.62-7,6.62-.14,4.21-.06,8.43,0,12.64v13h0Q24,45,24,54.14c0,10.25-.05,20.5,0,30.75a6.53,6.53,0,0,0,6.83,6.6q15,.06,30.09,0a6.63,6.63,0,0,0,7-7C68,72.9,67.88,21.59,67.91,10.63ZM65.28,72.37H60.73c-.39,0-.79,0-1.19,0h-33s0-.83,0-1.32c0-8.57.11-50.68,0-52.33-.08-1.3.37-1.67,1.67-1.67q17.7.07,35.39,0c1.28,0,1.69.34,1.68,1.66Q65.27,45.55,65.28,72.37ZM33.41,6c8.91.2,17.84,0,26.75,0,3.64,0,5.12,1.48,5.13,5.1,0,3.3,0,3.3-3.27,3.3H45.84c-6,0-11.89,0-17.84,0-1,0-1.41-.23-1.44-1.35C26.39,8.14,27.09,5.89,33.41,6ZM60.58,88.9H31.31c-3.06,0-4.65-1.59-4.71-4.71,0-2.48-.05-9.26-.05-9.26h1.88c10.42.06,36.85,0,36.85,0v9.28C65.28,87.28,63.65,88.9,60.58,88.9Z"/></svg>