<svg id="Capa_1" data-name="Capa 1" xmlns="http://www.w3.org/2000/svg" viewBox="0 0 95 95"><defs><style>.cls-1{fill:#fff;}</style></defs><title>Tip</title><path class="cls-1" d="M30.65,47.48l.2.3a1.28,1.28,0,0,1,0,1.44c-.43.73-.87,1.45-1.26,2.2A3,3,0,0,1,27,53H3.44C3.1,53.05,3,53,3,52.62a6.81,6.81,0,0,0,0-1c0-.28.08-.33.33-.32H14.45a.48.48,0,0,0,.48-.29c1.59-2.92,3.2-5.83,4.79-8.75a.5.5,0,0,1,.51-.31H32.52a2.49,2.49,0,0,1,1,.19A.9.9,0,0,1,34,43.47c-.49,1-1,1.89-1.53,2.81a2.67,2.67,0,0,1-1.4,1ZM24,46.62c1.07,0,2.09,0,3.11,0a1.29,1.29,0,0,0,1.11-.67c.22-.38.42-.77.61-1.17s0-.83-.53-.84c-.88,0-1.76,0-2.64,0a.32.32,0,0,0-.33.19ZM21.4,51.29h3.1a1,1,0,0,0,.9-.51c.29-.5.57-1,.82-1.53s0-.7-.45-.71H23.09c-.12,0-.23,0-.3.12Z"/><path class="cls-1" d="M38.15,53H32.61a2.23,2.23,0,0,1-.45,0,.87.87,0,0,1-.76-1.22,2.72,2.72,0,0,1,.27-.63c1.31-2.4,2.59-4.8,3.92-7.17a3.68,3.68,0,0,1,3.46-2q5.22,0,10.44,0c1.2,0,2,.52,1.15,2q-1.86,3.38-3.71,6.76a4.86,4.86,0,0,1-1.54,1.85,2.93,2.93,0,0,1-1.67.51Zm4.94-9.1a1.38,1.38,0,0,0-1.6.68c-1.09,2-2.21,4-3.31,6-.23.41-.11.66.37.7a6.22,6.22,0,0,0,1.22,0,1.19,1.19,0,0,0,1-.7c.17-.35.37-.69.56-1l2.77-5.06c.19-.34.12-.49-.27-.54A6.26,6.26,0,0,0,43.09,43.94Z"/><path class="cls-1" d="M57.54,46.64h6.12a3.61,3.61,0,0,1,.73.07.85.85,0,0,1,.67,1.3c-.19.43-.44.84-.66,1.26-.38.69-.75,1.39-1.15,2.07a3.15,3.15,0,0,1-2.93,1.71c-3.62,0-7.24,0-10.86,0a2.25,2.25,0,0,1-.89-.15.74.74,0,0,1-.47-1A16,16,0,0,1,49,50.1a.24.24,0,0,1,.24-.1h6.31l.07.05c-.09.16-.19.32-.28.49s-.05.51.26.52c.83,0,1.18.1,1.6-.75.23-.49.52-1,.78-1.44s.19-.39-.24-.39H52c-1.27,0-1.71-.67-1.12-1.79s1.14-2.11,1.76-3.12A3.3,3.3,0,0,1,55.59,42H66.66c1.08,0,1.42.6.91,1.55L66.81,45c-.07.14-.14.25-.33.25H60.17l-.11,0c.14-.25.28-.49.41-.74s.08-.45-.26-.49a1.49,1.49,0,0,0-1.61.83C58.27,45.36,57.92,46,57.54,46.64Z"/><path class="cls-1" d="M74.36,46.63h8.42l-1,1.77c-.09.16-.25.09-.38.09h-7.7a.54.54,0,0,0-.56.33c-.42.81-.87,1.61-1.34,2.46h8.4c-.33.59-.62,1.12-.91,1.66-.09.15-.22.1-.34.1H64.35c0-.12,0-.19.07-.26l5.8-10.58a.44.44,0,0,1,.44-.25H91.58c.29,0,.36.09.35.35,0,.43,0,.86,0,1.29,0,.18-.06.26-.24.24H76.25a.51.51,0,0,0-.54.31c-.38.74-.8,1.46-1.2,2.19C74.46,46.41,74.42,46.5,74.36,46.63Z"/><path class="cls-1" d="M90.54,44.17a1.49,1.49,0,0,1,0,3,1.49,1.49,0,1,1,0-3Zm1.08,1.49a1.1,1.1,0,0,0-1.12-1.13,1.15,1.15,0,0,0-1.12,1.14,1.14,1.14,0,0,0,1.16,1.1A1.08,1.08,0,0,0,91.62,45.66Z"/><path class="cls-1" d="M90,45.66v-.07c0-.2-.1-.49.07-.58a1.22,1.22,0,0,1,.78,0,.32.32,0,0,1,.27.44,1.28,1.28,0,0,0,0,.64c0,.09.13.27-.11.28s-.2-.11-.2-.25a.25.25,0,0,0-.09-.24.25.25,0,0,0-.4.21c0,.1.08.28-.14.28S90,46.15,90,46A2.38,2.38,0,0,1,90,45.66Zm.5-.08c.16,0,.34,0,.34-.18s-.18-.18-.32-.18-.23,0-.23.16S90.36,45.6,90.49,45.58Z"/></svg>