<?xml version="1.0" encoding="utf-8"?>
<!-- Generator: Adobe Illustrator 24.0.2, SVG Export Plug-In . SVG Version: 6.00 Build 0)  -->
<svg version="1.1" id="Capa_1" xmlns="http://www.w3.org/2000/svg" xmlns:xlink="http://www.w3.org/1999/xlink" x="0px" y="0px"
	 viewBox="0 0 659.5 693.2" enable-background="new 0 0 659.5 693.2" xml:space="preserve">
<g>
	<path fill="#FFFFFF" d="M122.6,669.7l-30.9-41.1v41.1h-7.3v-51h8.5l28.6,38.1v-38.1h7.3v51H122.6z"/>
	<path fill="#FFFFFF" d="M147.6,669.7v-51h7.4v51H147.6z"/>
	<path fill="#FFFFFF" d="M208.8,620.4v7.1c-6.6-2-11-3.1-16.2-3.1c-6.7,0-13.4,1.6-13.4,7.3c0,3.8,3.2,5.9,7.4,7.1l12.9,3.7
		c6.3,1.7,11.4,5.6,11.4,13.3c0,9.5-7.9,14.8-21.6,14.8c-6.7,0-12.5-1.3-18.3-3.4v-7.4c6,2,11.6,4.2,18.3,4.2c8.5,0,14-3.1,14-7.8
		c0-4.2-3.2-6.3-7.6-7.4l-12-3.3c-6.5-1.7-12.1-5.4-12.1-13.6c0-10,9.5-14,20.9-14C199,617.8,204.1,618.9,208.8,620.4z"/>
	<path fill="#FFFFFF" d="M262.5,620.4v7.1c-6.6-2-11-3.1-16.2-3.1c-6.7,0-13.4,1.6-13.4,7.3c0,3.8,3.2,5.9,7.4,7.1l12.9,3.7
		c6.3,1.7,11.4,5.6,11.4,13.3c0,9.5-7.9,14.8-21.6,14.8c-6.7,0-12.5-1.3-18.3-3.4v-7.4c6,2,11.6,4.2,18.3,4.2c8.5,0,14-3.1,14-7.8
		c0-4.2-3.2-6.3-7.6-7.4l-12-3.3c-6.5-1.7-12.1-5.4-12.1-13.6c0-10,9.5-14,20.9-14C252.7,617.8,257.8,618.9,262.5,620.4z"/>
	<path fill="#FFFFFF" d="M319.1,669.7c-1.3-3.8-2.8-8.3-4.7-13.2h-27.8c-2,5.2-3.7,9.8-4.7,13.2H274c7.7-23.3,18.7-45.5,22-51h8.7
		c2.1,3.4,13,23.8,22,51H319.1z M311.8,649.9c-3.6-9-7.8-18.3-11.3-24.5c-3.2,6-7.5,15.5-11.2,24.5H311.8z"/>
	<path fill="#FFFFFF" d="M377.1,669.7l-30.9-41.1v41.1h-7.3v-51h8.5l28.6,38.1v-38.1h7.3v51H377.1z"/>
	<path fill="#FFFFFF" d="M446,629v40.7h-12.2V629h-16.8v-10.3h45.7V629H446z"/>
	<path fill="#FFFFFF" d="M469.8,669.7v-51H482v51H469.8z"/>
	<path fill="#FFFFFF" d="M516.6,618.7c11.7,0,22.3,3.7,22.3,18.4c0,14.2-12.2,18.5-22.3,18.5h-11.6v14h-12.2v-51H516.6z
		 M505.1,645.4h10.5c6,0,10.7-1.3,10.7-8.5c0-6.4-4.6-7.8-10.9-7.8h-10.3V645.4z"/>
	<path fill="#FFFFFF" d="M585.2,620.3V631c-6.6-1.6-11.1-2.7-18.6-2.7c-7.2,0-9.6,1.8-9.6,4.5c0,1.6,1.1,3.1,5.3,4.2l13.4,3.5
		c9.3,2.4,13,7.2,13,13.8c0,10.2-7.5,16.2-22.6,16.2c-9.5,0-15.2-1.3-20.8-2.8v-11.1c5.4,1.4,13.9,3.3,19.3,3.3
		c8.1,0,11.5-1.2,11.5-4.4c0-2.3-2.3-4.2-6.9-5.3l-12.9-3.3c-7.6-2-11.8-7.1-11.8-14c0-10.2,7.4-15.3,22.9-15.3
		C574.6,617.8,580.7,619.2,585.2,620.3z"/>
</g>
<image overflow="visible" width="2748" height="2422" xlink:href="4A92AAF4.png"  transform="matrix(0.24 0 0 0.24 0 0)">
</image>
</svg>
