<?xml version="1.0" encoding="utf-8"?>
<!-- Generator: Adobe Illustrator 23.0.5, SVG Export Plug-In . SVG Version: 6.00 Build 0)  -->
<svg version="1.1" id="Capa_1" xmlns="http://www.w3.org/2000/svg" xmlns:xlink="http://www.w3.org/1999/xlink" x="0px" y="0px"
	 viewBox="0 0 155 131" style="enable-background:new 0 0 155 131;" xml:space="preserve">
<style type="text/css">
	.st0{fill:#FFFFFF;}
</style>
<g>
	<path class="st0" d="M89.2,70.7c-0.1,0-0.6,0-0.8,0H74v3.4h14.7c0.1,0,1,0,1.1,0c3-0.3,4.4-2.8,4.4-4.9c0-2.2-1.4-4.6-4.1-4.9
		c-0.5-0.1-1-0.1-1.2-0.1h-9.6c-0.4,0-0.9,0-1.1-0.1c-0.8-0.2-1-0.9-1-1.4c0-0.5,0.3-1.2,1.1-1.4c0.2-0.1,0.5-0.1,1-0.1h13.8v-3.3
		H79.1c-0.6,0-1,0-1.4,0.1c-2.4,0.3-4.1,2.3-4.1,4.7c0,2,1.3,4.4,4,4.8c0.5,0.1,1.2,0.1,1.5,0.1h9.3c0.2,0,0.6,0,0.7,0
		c1.1,0.1,1.4,0.9,1.4,1.6C90.5,69.8,90.1,70.5,89.2,70.7"/>
	<path class="st0" d="M61.9,70.7c-0.1,0-0.6,0-0.7,0H46.7v3.4h14.7c0.1,0,1,0,1.1,0c3-0.3,4.4-2.8,4.4-4.9c0-2.2-1.4-4.6-4.1-4.9
		c-0.5-0.1-1-0.1-1.2-0.1H52c-0.4,0-0.9,0-1.1-0.1c-0.8-0.2-1-0.9-1-1.4c0-0.5,0.3-1.2,1.1-1.4c0.2-0.1,0.5-0.1,1-0.1h13.8v-3.3
		H51.7c-0.6,0-1,0-1.4,0.1c-2.4,0.3-4.1,2.3-4.1,4.7c0,2,1.3,4.4,4,4.8c0.5,0.1,1.2,0.1,1.5,0.1h9.3c0.2,0,0.6,0,0.7,0
		c1.1,0.1,1.4,0.9,1.4,1.6C63.2,69.8,62.8,70.5,61.9,70.7"/>
	<rect x="35.5" y="57.8" class="st0" width="3.6" height="16.4"/>
	<polygon class="st0" points="27.5,74.2 27.5,57.8 23.9,57.8 23.9,70 11.8,57.8 7.1,57.8 7.1,74.2 10.7,74.2 10.7,61.9 22.9,74.2 	
		"/>
	<polygon class="st0" points="144.4,57.8 144.4,70 132.3,57.8 127.6,57.8 127.6,74.2 131.3,74.2 131.3,61.9 143.4,74.2 148,74.2 
		148,57.8 	"/>
	<path class="st0" d="M108.7,57.8L98.5,74.2h4.4l1.8-2.9h11.9l1.8,2.9h4.4l-10.2-16.4H108.7z M114.8,68.1h-8.2l4.1-6.6L114.8,68.1z"
		/>
	<path class="st0" d="M27.3,48.5c7.3-21.4,27.5-35.8,50.3-35.8s43,14.4,50.3,35.8l0.1,0.2h16v-1.9l-6.7-0.8c-4.1-0.5-5-2.3-6.1-4.6
		l-0.3-0.6c-9.6-20.5-30.6-33.7-53.3-33.7c-22.8,0-43.7,13.3-53.3,33.8L24,41.4c-1.1,2.3-2,4.1-6.1,4.6l-6.7,0.8v1.9h16L27.3,48.5z"
		/>
	<path class="st0" d="M127.9,83.3l-0.1,0.2c-7.3,21.4-27.5,35.7-50.3,35.7c-22.8,0-43-14.4-50.3-35.8l-0.1-0.2h-16v1.9l6.7,0.8
		c4.1,0.5,5,2.3,6.1,4.6l0.3,0.6c9.6,20.5,30.6,33.8,53.3,33.8c22.8,0,43.7-13.3,53.3-33.7l0.3-0.6c1.1-2.3,2-4.1,6.1-4.6l6.7-0.8
		v-1.9H127.9z"/>
</g>
</svg>
