<?xml version="1.0" encoding="utf-8"?>
<!-- Generator: Adobe Illustrator 24.0.2, SVG Export Plug-In . SVG Version: 6.00 Build 0)  -->
<svg version="1.1" id="Capa_1" xmlns="http://www.w3.org/2000/svg" xmlns:xlink="http://www.w3.org/1999/xlink" x="0px" y="0px"
	 viewBox="0 0 504.3 52.8" enable-background="new 0 0 504.3 52.8" xml:space="preserve">
<g>
	<path fill="#FFFFFF" d="M38.2,51.9L7.3,10.8v41.1H0v-51h8.5L37.1,39V0.9h7.3v51H38.2z"/>
	<path fill="#FFFFFF" d="M63.2,51.9v-51h7.4v51H63.2z"/>
	<path fill="#FFFFFF" d="M124.4,2.7v7.1c-6.6-2-11-3.1-16.2-3.1c-6.7,0-13.4,1.6-13.4,7.3c0,3.8,3.2,5.9,7.4,7.1l12.9,3.7
		c6.3,1.7,11.4,5.6,11.4,13.3c0,9.5-7.9,14.8-21.6,14.8c-6.7,0-12.5-1.3-18.3-3.4v-7.4c6,2,11.6,4.2,18.3,4.2c8.5,0,14-3.1,14-7.8
		c0-4.2-3.2-6.3-7.6-7.4l-12-3.3c-6.5-1.7-12.1-5.4-12.1-13.6c0-10,9.5-14,20.9-14C114.5,0,119.6,1.1,124.4,2.7z"/>
	<path fill="#FFFFFF" d="M178.1,2.7v7.1c-6.6-2-11-3.1-16.2-3.1c-6.7,0-13.4,1.6-13.4,7.3c0,3.8,3.2,5.9,7.4,7.1l12.9,3.7
		c6.3,1.7,11.4,5.6,11.4,13.3c0,9.5-7.9,14.8-21.6,14.8c-6.7,0-12.5-1.3-18.3-3.4v-7.4c6,2,11.6,4.2,18.3,4.2c8.5,0,14-3.1,14-7.8
		c0-4.2-3.2-6.3-7.6-7.4l-12-3.3C146.6,25.8,141,22.1,141,14c0-10,9.5-14,20.9-14C168.2,0,173.3,1.1,178.1,2.7z"/>
	<path fill="#FFFFFF" d="M234.6,51.9c-1.3-3.8-2.8-8.3-4.7-13.2h-27.8c-2,5.2-3.7,9.8-4.7,13.2h-7.9c7.7-23.3,18.7-45.5,22-51h8.7
		c2.1,3.4,13,23.8,22,51H234.6z M227.3,32.1c-3.6-9-7.8-18.3-11.3-24.5c-3.2,6-7.5,15.5-11.2,24.5H227.3z"/>
	<path fill="#FFFFFF" d="M292.6,51.9l-30.9-41.1v41.1h-7.3v-51h8.5L291.5,39V0.9h7.3v51H292.6z"/>
	<path fill="#FFFFFF" d="M361.5,11.2v40.7h-12.2V11.2h-16.8V0.9h45.7v10.3H361.5z"/>
	<path fill="#FFFFFF" d="M385.4,51.9v-51h12.2v51H385.4z"/>
	<path fill="#FFFFFF" d="M432.2,0.9c11.7,0,22.3,3.7,22.3,18.4c0,14.2-12.2,18.5-22.3,18.5h-11.6v14h-12.2v-51H432.2z M420.7,27.6
		h10.5c6,0,10.7-1.3,10.7-8.5c0-6.4-4.6-7.8-10.9-7.8h-10.3V27.6z"/>
	<path fill="#FFFFFF" d="M500.8,2.6v10.7c-6.6-1.6-11.1-2.7-18.6-2.7c-7.2,0-9.6,1.8-9.6,4.5c0,1.6,1.1,3.1,5.3,4.2l13.4,3.5
		c9.3,2.4,13,7.2,13,13.8c0,10.2-7.5,16.2-22.6,16.2c-9.5,0-15.2-1.3-20.8-2.8V39c5.4,1.4,13.9,3.3,19.3,3.3
		c8.1,0,11.5-1.2,11.5-4.4c0-2.3-2.3-4.2-6.9-5.3l-12.9-3.3c-7.6-2-11.8-7.1-11.8-14c0-10.2,7.4-15.3,22.9-15.3
		C490.2,0,496.2,1.5,500.8,2.6z"/>
</g>
</svg>
