<?xml version="1.0" encoding="utf-8"?>
<!-- Generator: Adobe Illustrator 24.0.2, SVG Export Plug-In . SVG Version: 6.00 Build 0)  -->
<svg version="1.1" xmlns="http://www.w3.org/2000/svg" xmlns:xlink="http://www.w3.org/1999/xlink" x="0px" y="0px"
	 viewBox="0 0 93.7 93.7" enable-background="new 0 0 93.7 93.7" xml:space="preserve">
<g id="Fuera">
</g>
<g id="Pantalla_11">
</g>
<g id="Pantalla_10">
</g>
<g id="Pantalla_9">
</g>
<g id="Pantalla_8">
</g>
<g id="Pantalla_7">
</g>
<g id="Pantalla_6">
	<g>
		<g>
			<path fill="#FFFFFF" d="M46.9,0C21,0,0,21,0,46.9c0,11.3,4,21.7,10.7,29.8c0,0,0,0.1,0,0.1c4.8,5.8,10.9,10.3,17.7,13.2
				c0.1,0,0.2,0.1,0.2,0.1c0.5,0.2,1.1,0.4,1.7,0.7c0.2,0.1,0.4,0.2,0.7,0.2c0.5,0.2,1,0.3,1.4,0.5c0.3,0.1,0.6,0.2,0.9,0.3
				c0.4,0.1,0.9,0.3,1.3,0.4c0.4,0.1,0.8,0.2,1.1,0.3c0.4,0.1,0.8,0.2,1.2,0.3c0.4,0.1,0.9,0.2,1.3,0.3c0.4,0.1,0.7,0.1,1.1,0.2
				c0.5,0.1,1,0.1,1.5,0.2c0.3,0,0.6,0.1,1,0.1c0.6,0.1,1.1,0.1,1.7,0.1c0.3,0,0.5,0,0.8,0.1c0.8,0,1.7,0.1,2.5,0.1s1.7,0,2.5-0.1
				c0.3,0,0.5,0,0.8-0.1c0.6,0,1.1-0.1,1.7-0.1c0.3,0,0.6-0.1,1-0.1c0.5-0.1,1-0.1,1.5-0.2c0.4-0.1,0.7-0.1,1.1-0.2
				c0.4-0.1,0.9-0.2,1.3-0.3c0.4-0.1,0.8-0.2,1.2-0.3c0.4-0.1,0.8-0.2,1.1-0.3c0.4-0.1,0.9-0.2,1.3-0.4c0.3-0.1,0.6-0.2,0.9-0.3
				c0.5-0.2,1-0.3,1.4-0.5c0.2-0.1,0.4-0.2,0.7-0.2c0.6-0.2,1.1-0.4,1.7-0.7c0.1,0,0.2-0.1,0.2-0.1C72,87.1,78.1,82.6,83,76.8
				c0,0,0-0.1,0-0.1c6.7-8.1,10.7-18.5,10.7-29.8C93.7,21,72.7,0,46.9,0z M65.9,86.3C65.8,86.3,65.8,86.3,65.9,86.3
				c-0.6,0.3-1.2,0.6-1.8,0.8c-0.1,0.1-0.3,0.1-0.4,0.2c-0.5,0.2-1,0.4-1.5,0.6c-0.2,0.1-0.4,0.2-0.6,0.2c-0.5,0.2-0.9,0.3-1.4,0.5
				c-0.3,0.1-0.6,0.2-0.9,0.3c-0.4,0.1-0.8,0.2-1.2,0.3c-0.3,0.1-0.7,0.2-1,0.3c-0.4,0.1-0.7,0.2-1.1,0.3c-0.4,0.1-0.8,0.2-1.2,0.2
				c-0.3,0.1-0.7,0.1-1,0.2c-0.5,0.1-0.9,0.1-1.4,0.2c-0.3,0-0.6,0.1-0.9,0.1c-0.5,0.1-1.1,0.1-1.6,0.1c-0.2,0-0.5,0-0.7,0.1
				c-0.8,0-1.5,0.1-2.3,0.1s-1.6,0-2.3-0.1c-0.2,0-0.5,0-0.7-0.1c-0.5,0-1.1-0.1-1.6-0.1c-0.3,0-0.6-0.1-0.9-0.1
				c-0.5-0.1-0.9-0.1-1.4-0.2c-0.3-0.1-0.7-0.1-1-0.2c-0.4-0.1-0.8-0.1-1.2-0.2c-0.4-0.1-0.7-0.2-1.1-0.3c-0.3-0.1-0.7-0.2-1-0.3
				c-0.4-0.1-0.8-0.2-1.2-0.3c-0.3-0.1-0.6-0.2-0.9-0.3c-0.5-0.1-0.9-0.3-1.4-0.5c-0.2-0.1-0.4-0.2-0.6-0.2c-0.5-0.2-1-0.4-1.5-0.6
				c-0.1-0.1-0.3-0.1-0.4-0.2c-0.6-0.2-1.1-0.5-1.7-0.8c0,0,0,0-0.1,0c-5.5-2.6-10.3-6.4-14.2-10.9c3-11.1,11.6-20.1,22.6-23.7
				c0.2,0.1,0.4,0.3,0.7,0.4c0.1,0.1,0.3,0.2,0.4,0.2c0.5,0.2,0.9,0.5,1.4,0.7c0.4,0.2,0.8,0.3,1.1,0.4c0.1,0,0.1,0.1,0.2,0.1
				c2.1,0.7,4.4,1.2,6.8,1.2s4.6-0.4,6.8-1.2c0.1,0,0.1-0.1,0.2-0.1c0.4-0.1,0.8-0.3,1.1-0.4c0.5-0.2,1-0.4,1.4-0.7
				c0.1-0.1,0.3-0.1,0.4-0.2c0.2-0.1,0.5-0.2,0.7-0.4C68.5,55.3,77,64.2,80,75.3C76.1,79.9,71.3,83.6,65.9,86.3z M29.7,34.4
				c0-9.5,7.7-17.2,17.2-17.2s17.2,7.7,17.2,17.2c0,6-3.1,11.3-7.8,14.4c-0.6,0.4-1.3,0.8-1.9,1.1c-0.1,0-0.2,0.1-0.2,0.1
				c-4.5,2.1-9.9,2.1-14.4,0c-0.1,0-0.2-0.1-0.2-0.1c-0.7-0.3-1.3-0.7-1.9-1.1C32.8,45.7,29.7,40.4,29.7,34.4z M82.4,72.4
				c-3.5-10.5-11.6-18.9-21.9-22.9c4.1-3.7,6.7-9.1,6.7-15.1c0-11.2-9.1-20.3-20.3-20.3s-20.3,9.1-20.3,20.3c0,6,2.6,11.4,6.7,15.1
				c-10.3,4-18.4,12.5-21.9,22.9c-5.2-7.2-8.2-16-8.2-25.5c0-24.1,19.6-43.7,43.7-43.7s43.7,19.6,43.7,43.7
				C90.6,56.4,87.5,65.2,82.4,72.4z"/>
		</g>
	</g>
</g>
<g id="Pantalla_5">
</g>
<g id="Pantalla_4">
</g>
<g id="Pantalla_3">
</g>
<g id="Pantalla_2">
</g>
<g id="Pantalla_1">
</g>
</svg>
