<?xml version="1.0" encoding="utf-8"?>
<!-- Generator: Adobe Illustrator 24.0.2, SVG Export Plug-In . SVG Version: 6.00 Build 0)  -->
<svg version="1.1" xmlns="http://www.w3.org/2000/svg" xmlns:xlink="http://www.w3.org/1999/xlink" x="0px" y="0px"
	 viewBox="0 0 78.2 87.1" enable-background="new 0 0 78.2 87.1" xml:space="preserve">
<g id="Fuera">
</g>
<g id="Pantalla_11">
</g>
<g id="Pantalla_10">
</g>
<g id="Pantalla_9">
</g>
<g id="Pantalla_8">
</g>
<g id="Pantalla_7">
</g>
<g id="Pantalla_6">
	<g>
		<g>
			<g>
				<path fill="#FFFFFF" d="M77.1,83.4c-2.5-1.3-3.8-3.3-3.8-5.9V20.3c0-0.7-0.6-1.3-1.3-1.3c-0.7,0-1.3,0.6-1.3,1.3v57.2
					c0,2.9,1.2,5.3,3.5,7.1h-52c-4,0-7.2-3.2-7.2-7.2c0,0,0-69.8,0-69.8c0-1.8-0.7-3.6-1.9-5h50.4c4,0,7.2,3.2,7.2,7.2v4.7
					c0,0.7,0.6,1.3,1.3,1.3c0.7,0,1.3-0.6,1.3-1.3V9.8c0-5.4-4.4-9.8-9.8-9.8h-56C3.4,0,0,3.4,0,7.5v4.7c0,1.6,1.3,2.9,2.9,2.9h9.7
					v62.3c0,5.4,4.4,9.8,9.8,9.8h53.8c0.9,0,1.7-0.6,1.9-1.5C78.3,84.7,77.9,83.8,77.1,83.4L77.1,83.4z M12.5,12.5H2.9
					c-0.2,0-0.3-0.1-0.3-0.3V7.5c0-2.8,2.2-5,5-5s5,2.2,5,5V12.5z"/>
				<path fill="#FFFFFF" d="M54.3,12.7c0.7,0,1.3-0.6,1.3-1.3s-0.6-1.3-1.3-1.3H31.5c-0.7,0-1.3,0.6-1.3,1.3c0,0.7,0.6,1.3,1.3,1.3
					H54.3z"/>
				<path fill="#FFFFFF" d="M62.9,21.7H23c-0.7,0-1.3,0.6-1.3,1.3s0.6,1.3,1.3,1.3h39.9c0.7,0,1.3-0.6,1.3-1.3S63.6,21.7,62.9,21.7z
					"/>
				<path fill="#FFFFFF" d="M62.9,28H23c-0.7,0-1.3,0.6-1.3,1.3c0,0.7,0.6,1.3,1.3,1.3h39.9c0.7,0,1.3-0.6,1.3-1.3
					C64.2,28.6,63.6,28,62.9,28z"/>
				<path fill="#FFFFFF" d="M64.2,35.7c0-0.7-0.6-1.3-1.3-1.3H23c-0.7,0-1.3,0.6-1.3,1.3s0.6,1.3,1.3,1.3h39.9
					C63.6,36.9,64.2,36.4,64.2,35.7z"/>
				<path fill="#FFFFFF" d="M47.2,42c0-0.7-0.6-1.3-1.3-1.3H23c-0.7,0-1.3,0.6-1.3,1.3s0.6,1.3,1.3,1.3h23
					C46.7,43.3,47.2,42.7,47.2,42z"/>
				<path fill="#FFFFFF" d="M37.8,76.8c0.5,0.3,1.1,0.3,1.7,0l3.5-1.9l3.5,1.9C46.7,77,47,77,47.3,77c0.3,0,0.6-0.1,0.9-0.2
					c0.5-0.3,0.8-0.9,0.8-1.4l0-9.3c2.2-1.8,3.7-4.5,3.7-7.6c0-5.3-4.3-9.7-9.7-9.7s-9.7,4.3-9.7,9.7c0,0.7,0.6,1.3,1.3,1.3
					s1.3-0.6,1.3-1.3c0-3.9,3.2-7.1,7.1-7.1s7.1,3.2,7.1,7.1s-3.2,7.1-7.1,7.1c-2.1,0-4.1-0.9-5.4-2.5c-0.5-0.5-1.3-0.6-1.8-0.2
					c-0.5,0.5-0.6,1.3-0.2,1.8c0.4,0.5,0.9,1,1.5,1.4l0,9.2C37,75.9,37.3,76.5,37.8,76.8L37.8,76.8z M39.6,67.6
					c1.1,0.4,2.2,0.6,3.4,0.6c1.2,0,2.4-0.2,3.5-0.6l0,6.3l-2.6-1.4c-0.3-0.1-0.5-0.2-0.8-0.2c-0.3,0-0.6,0.1-0.8,0.2l-2.6,1.4
					L39.6,67.6z"/>
			</g>
		</g>
	</g>
</g>
<g id="Pantalla_5">
</g>
<g id="Pantalla_4">
</g>
<g id="Pantalla_3">
</g>
<g id="Pantalla_2">
</g>
<g id="Pantalla_1">
</g>
</svg>
