<?xml version="1.0" encoding="utf-8"?>
<!-- Generator: Adobe Illustrator 24.0.2, SVG Export Plug-In . SVG Version: 6.00 Build 0)  -->
<svg version="1.1" xmlns="http://www.w3.org/2000/svg" xmlns:xlink="http://www.w3.org/1999/xlink" x="0px" y="0px"
	 viewBox="0 0 62.9 85.8" enable-background="new 0 0 62.9 85.8" xml:space="preserve">
<g id="Fuera">
</g>
<g id="Pantalla_11">
</g>
<g id="Pantalla_10">
</g>
<g id="Pantalla_9">
</g>
<g id="Pantalla_8">
</g>
<g id="Pantalla_7">
</g>
<g id="Pantalla_6">
	<g>
		<g>
			<g>
				<path fill="#FFFFFF" d="M62.9,15.7c0-0.4-0.1-0.7-0.4-1L48.2,0.4c-0.3-0.3-0.6-0.4-1-0.4v0H4.3C1.9,0,0,1.9,0,4.3v77.2
					c0,2.4,1.9,4.3,4.3,4.3h54.3c2.4,0,4.3-1.9,4.3-4.3L62.9,15.7L62.9,15.7z M48.6,4.9l9.4,9.4h-8c-0.8,0-1.4-0.6-1.4-1.4V4.9z
					 M60,81.5c0,0.8-0.6,1.4-1.4,1.4H4.3c-0.8,0-1.4-0.6-1.4-1.4V4.3c0-0.8,0.6-1.4,1.4-1.4h41.4v10c0,2.4,1.9,4.3,4.3,4.3h10V81.5z
					"/>
			</g>
		</g>
		<g>
			<g>
				<path fill="#FFFFFF" d="M14.3,38.6c-2.4,0-4.3,1.9-4.3,4.3c0,2.4,1.9,4.3,4.3,4.3s4.3-1.9,4.3-4.3
					C18.6,40.5,16.7,38.6,14.3,38.6z M14.3,44.3c-0.8,0-1.4-0.6-1.4-1.4c0-0.8,0.6-1.4,1.4-1.4c0.8,0,1.4,0.6,1.4,1.4
					C15.7,43.7,15.1,44.3,14.3,44.3z"/>
			</g>
		</g>
		<g>
			<g>
				<rect x="24.3" y="41.4" fill="#FFFFFF" width="28.6" height="2.9"/>
			</g>
		</g>
		<g>
			<g>
				<path fill="#FFFFFF" d="M14.3,24.3c-2.4,0-4.3,1.9-4.3,4.3s1.9,4.3,4.3,4.3s4.3-1.9,4.3-4.3S16.7,24.3,14.3,24.3z M14.3,30
					c-0.8,0-1.4-0.6-1.4-1.4s0.6-1.4,1.4-1.4c0.8,0,1.4,0.6,1.4,1.4S15.1,30,14.3,30z"/>
			</g>
		</g>
		<g>
			<g>
				<rect x="24.3" y="27.2" fill="#FFFFFF" width="28.6" height="2.9"/>
			</g>
		</g>
		<g>
			<g>
				<path fill="#FFFFFF" d="M14.3,52.9c-2.4,0-4.3,1.9-4.3,4.3c0,2.4,1.9,4.3,4.3,4.3s4.3-1.9,4.3-4.3
					C18.6,54.8,16.7,52.9,14.3,52.9z M14.3,58.6c-0.8,0-1.4-0.6-1.4-1.4c0-0.8,0.6-1.4,1.4-1.4c0.8,0,1.4,0.6,1.4,1.4
					C15.7,58,15.1,58.6,14.3,58.6z"/>
			</g>
		</g>
		<g>
			<g>
				<rect x="24.3" y="55.7" fill="#FFFFFF" width="28.6" height="2.9"/>
			</g>
		</g>
		<g>
			<g>
				<path fill="#FFFFFF" d="M14.3,67.2c-2.4,0-4.3,1.9-4.3,4.3c0,2.4,1.9,4.3,4.3,4.3s4.3-1.9,4.3-4.3
					C18.6,69.1,16.7,67.2,14.3,67.2z M14.3,72.9c-0.8,0-1.4-0.6-1.4-1.4c0-0.8,0.6-1.4,1.4-1.4c0.8,0,1.4,0.6,1.4,1.4
					C15.7,72.2,15.1,72.9,14.3,72.9z"/>
			</g>
		</g>
		<g>
			<g>
				<rect x="24.3" y="70" fill="#FFFFFF" width="28.6" height="2.9"/>
			</g>
		</g>
	</g>
</g>
<g id="Pantalla_5">
</g>
<g id="Pantalla_4">
</g>
<g id="Pantalla_3">
</g>
<g id="Pantalla_2">
</g>
<g id="Pantalla_1">
</g>
</svg>
